<?xml version="1.0" encoding="utf-8"?>
<!-- Generator: Adobe Illustrator 24.0.1, SVG Export Plug-In . SVG Version: 6.00 Build 0)  -->
<svg version="1.1" xmlns="http://www.w3.org/2000/svg" xmlns:xlink="http://www.w3.org/1999/xlink" x="0px" y="0px"
	 viewBox="0 0 684 670.3" style="enable-background:new 0 0 684 670.3;" xml:space="preserve">
<style type="text/css">
	.st0{opacity:0.98;fill:#FFFFFF;enable-background:new    ;}
	.st1{fill:#483737;}
	.st2{fill:#FFFFFF;}
</style>
<g id="svg2" inkscape:version="0.48.5 r10040" sodipodi:docname="arrow.svg" xmlns:cc="http://creativecommons.org/ns#" xmlns:dc="http://purl.org/dc/elements/1.1/" xmlns:inkscape="http://www.inkscape.org/namespaces/inkscape" xmlns:rdf="http://www.w3.org/1999/02/22-rdf-syntax-ns#" xmlns:sodipodi="http://sodipodi.sourceforge.net/DTD/sodipodi-0.dtd" xmlns:svg="http://www.w3.org/2000/svg">
	
		<sodipodi:namedview  bordercolor="#666666" borderopacity="1.0" fit-margin-bottom="10" fit-margin-left="10" fit-margin-right="10" fit-margin-top="10" id="base" inkscape:current-layer="layer1" inkscape:cx="312.15145" inkscape:cy="639.52548" inkscape:document-units="px" inkscape:pageopacity="0.0" inkscape:pageshadow="2" inkscape:window-height="721" inkscape:window-maximized="1" inkscape:window-width="1366" inkscape:window-x="-4" inkscape:window-y="-4" inkscape:zoom="0.24748737" pagecolor="#ffffff" showgrid="false">
		</sodipodi:namedview>
	<g id="layer1" transform="translate(-277.40625,-59.5)" inkscape:groupmode="layer" inkscape:label="Layer 1">
		
			<path id="rect2988_2_" inkscape:connector-curvature="0" sodipodi:nodetypes="cccccccccccccccccccccccccccccccccccccccccccccccccccccccc" class="st0" d="
			M630,306.8l61-94.3l-9.4-11.2L630,281.1v-2.7l61-94.3l-9.4-11.2L630,252.7V250l61-94.3l-9.4-11.2L630,224.4v-2.7l61-94.3
			l-9.4-11.2L630,196v-2.7L691,99l-9.4-11.2L630,167.6v-2.7l61-94.3l-9.4-11.2L630,139.3V89.8h-17.2v49.5l-51.6-79.8l-9.4,11.2
			l61,94.3v2.7l-51.6-79.8L551.8,99l61,94.3v2.7l-51.6-79.8l-9.4,11.2l61,94.3v2.7l-51.6-79.8l-9.4,11.2l61,94.3v2.7l-51.6-79.8
			l-9.4,11.2l61,94.3v2.7l-51.6-79.8l-9.4,11.2l61,94.3L630,306.8z"/>
	</g>
	<path class="st1" d="M335.4,247.3"/>
	<path class="st1" d="M352.6,247.3"/>
	<polyline class="st2" points="352.6,247.3 351.6,499.3 334.4,499.3 335.4,247.3 	"/>
</g>
<g id="Layer_2">
	<polygon class="st2" points="421.6,484.3 343,669.3 264.4,484.3 334.4,499.3 351.6,499.3 	"/>
</g>
</svg>
