<?xml version="1.0" encoding="utf-8"?>
<!-- Generator: Adobe Illustrator 24.0.1, SVG Export Plug-In . SVG Version: 6.00 Build 0)  -->
<svg version="1.1" xmlns="http://www.w3.org/2000/svg" xmlns:xlink="http://www.w3.org/1999/xlink" x="0px" y="0px"
	 viewBox="0 0 91 91" style="enable-background:new 0 0 91 91;" xml:space="preserve">
<style type="text/css">
	.st0{display:none;}
	.st1{display:inline;fill:#FFC557;}
	.st2{display:inline;fill:#414042;}
	.st3{fill:#FFFFFF;}
</style>
<g id="Layer_1" class="st0">
	
		<image style="display:inline;overflow:visible;" width="1000" height="880" xlink:href="305FF6A2.jpg"  transform="matrix(1 0 0 1 -576.7198 -93.2912)">
	</image>
</g>
<g id="Layer_2" class="st0">
	<path class="st1" d="M-62.2,89.6l87.4-150c0,0,13.7-16.5,27.5-0.5l86.3,152.7c0,0,8.2,17.6-11,25.8L-51.7,117
		C-51.7,117-69.9,111-62.2,89.6z"/>
	<path class="st2" d="M31.2-55.7c0,0,9.3-8.8,16.5,0.5s85.7,151.6,85.7,151.6s3.8,12.6-7.1,13.7s-175.8,0.5-175.8,0.5
		s-9.3-4.4-7.1-12.6C-54.5,89.9,31.2-55.7,31.2-55.7z"/>
</g>
<g id="Layer_3" class="st0">
	<polygon class="st1" points="38.7,-48.1 -45.4,97.5 120.5,98.1 	"/>
</g>
<g id="Layer_5">
	<path class="st3" d="M82.6,63.5C60.6,46.4,65,39.8,65,39.8l-3.3-4.4L53,22.8c0,0,5.5-20.9,1.1-16.5c-9.9,20.9-15.4,16.5-15.4,16.5
		S29.9,0.3,26.6,1.9c-3.3,1.6-5.5,26.4-5.5,26.4L7.9,36c-4.4,37.4,3.3,53.8,3.3,53.8l12.6-6L34.3,81l15.9-13.7l2.2,2.7
		c0,0,7.1,0.5,9.9,2.2C65,73.9,88.7,67.3,82.6,63.5z M48,43.7c0,0,7.7-3.3,8.8,3.3C56.8,47,51.3,49.7,48,43.7z"/>
</g>
</svg>
