<?xml version="1.0" encoding="utf-8"?>
<!-- Generator: Adobe Illustrator 24.0.1, SVG Export Plug-In . SVG Version: 6.00 Build 0)  -->
<svg version="1.1" id="Capa_1" xmlns="http://www.w3.org/2000/svg" xmlns:xlink="http://www.w3.org/1999/xlink" x="0px" y="0px"
	 viewBox="0 0 554 556" style="enable-background:new 0 0 554 556;" xml:space="preserve">
<style type="text/css">
	.st0{fill:#6AAF50;}
	.st1{fill:#4D8538;}
	.st2{fill:#FFFFFF;}
	.st3{fill:#FFFFFF;stroke:#000000;stroke-width:12;stroke-linecap:round;stroke-linejoin:round;stroke-miterlimit:10;}
	.st4{fill:none;stroke:#000000;stroke-width:12;stroke-linecap:round;stroke-linejoin:round;stroke-miterlimit:10;}
</style>
<circle class="st0" cx="277" cy="280" r="256"/>
<path class="st1" d="M156.7,126.2L156.7,126.2c-29.6,15.5-42.1,51.2-28.5,81.8c19.5,44,45.8,84.2,77.5,119.4l23.9,23.9l159.1,159.1
	c39.8-19.3,73.9-48.7,98.9-84.8l-58.7-58.7c-2.3-3.3-5.2-6.3-8.7-8.7L198.7,136.8C189.5,123.1,171.4,118.6,156.7,126.2z"/>
<path class="st2" d="M370.6,324.6c-8.2-5.6-19-5.5-27.1,0.1l-11.8,8.1c-13.1,9-30.5,8.5-43.1-1.2c-11.9-9.1-23.2-18.9-33.9-29.3
	c-10.4-10.7-20.2-22.1-29.3-33.9c-9.7-12.6-10.2-30-1.2-43.1l8.1-11.8c5.6-8.2,5.6-18.9,0.1-27.1l-33.6-49.6
	c-9.3-13.7-27.4-18.3-42.1-10.6l0,0c-29.6,15.5-42.1,51.2-28.5,81.8c19.5,44,45.8,84.2,77.5,119.4l23.9,23.9
	C264.8,383,305,409.3,349,428.8c30.5,13.6,66.3,1.1,81.8-28.5l0,0c7.7-14.7,3.1-32.8-10.6-42.1L370.6,324.6z"/>
<path class="st3" d="M268.5,312.9l-42.6-44.5c-9.7-12.6-10.2-30-1.2-43.1l8.1-11.8c5.6-8.2,5.6-18.9,0.1-27.1l-33.6-49.6
	c-9.3-13.7-27.4-18.3-42.1-10.6l0,0c-29.6,15.5-42.1,51.2-28.5,81.8c19.5,44,45.8,84.2,77.5,119.4l23.9,23.9
	c35.2,31.7,75.4,57.9,119.4,77.5c30.5,13.6,66.3,1.1,81.8-28.5l0,0c7.7-14.7,3.1-32.8-10.6-42.1l-49.6-33.6
	c-8.2-5.6-19-5.5-27.1,0.1l-11.8,8.1c-13.1,9-30.5,8.5-43.1-1.2"/>
<path class="st4" d="M437,479.8c0,0-65.7,53.1-160,57.2C135.7,543.2,21,422.4,21,281S135.6,25,277,25s256,114.6,256,256
	c0,0,1,107.9-75.6,179.9"/>
</svg>
