<?xml version="1.0" encoding="utf-8"?>
<!-- Generator: Adobe Illustrator 24.0.1, SVG Export Plug-In . SVG Version: 6.00 Build 0)  -->
<svg version="1.1" id="Layer_1" xmlns="http://www.w3.org/2000/svg" xmlns:xlink="http://www.w3.org/1999/xlink" x="0px" y="0px"
	 viewBox="0 0 355.5 511" style="enable-background:new 0 0 355.5 511;" xml:space="preserve">
<style type="text/css">
	.st0{fill:#005CA0;}
	.st1{fill:#005182;}
	.st2{fill:#FAD200;}
	.st3{fill:#FAB700;}
	.st4{fill:#EA9A94;}
	.st5{fill:#FFDED5;}
	.st6{fill:#F4ADA5;}
	.st7{fill:#1DC2FF;}
	.st8{fill:#ED500A;}
	.st9{fill:#FF6914;}
</style>
<path class="st0" d="M337.4,461.1H48.1c-22.5,0-40.7-18.2-40.7-40.7V47.2c0-22.5,18.2-40.7,40.7-40.7h289.3c6.1,0,11,4.9,11,11
	v432.7C348.4,456.2,343.5,461.1,337.4,461.1z"/>
<path class="st1" d="M337.4,6.5h-40.2c6.1,0,11,4.9,11,11v432.6c0,6.1-4.9,11-11,11h40.2c6.1,0,11-4.9,11-11V17.5
	C348.4,11.4,343.5,6.5,337.4,6.5z"/>
<path class="st2" d="M337.4,461.1H48.1c-22.5,0-40.7-18.2-40.7-40.7v-9.8c0-22.5,18.2-40.7,40.7-40.7h300.3v80.3
	C348.4,456.2,343.5,461.1,337.4,461.1z"/>
<path class="st3" d="M213.2,405.6h-156c-4.1,0-7.5-3.4-7.5-7.5s3.4-7.5,7.5-7.5h156c4.1,0,7.5,3.4,7.5,7.5S217.4,405.6,213.2,405.6z
	"/>
<path class="st3" d="M307.2,405.6h-58.7c-4.1,0-7.5-3.4-7.5-7.5s3.4-7.5,7.5-7.5h58.7c4.1,0,7.5,3.4,7.5,7.5
	S311.3,405.6,307.2,405.6z"/>
<g>
	<path class="st4" d="M83.4,277c10.8,0,12.2-8.2,12.4-12.7c0.1-2.3-0.5-3.1-2.6-3.1h-7.2c-3,0-3.7-2.7-3.7-5.3s0.8-5.2,3.7-5.2h13.3
		c6.8,0,8.5,3,8.7,8c0.7,16.1-5.8,29.3-24.1,29.3c-19.2,0-26.6-15.1-26.6-33.8c0-19.1,7-32.7,26.1-33.7c13.1,0,21.2,6.1,23.4,17.1
		c0.6,3-0.7,5.6-5.4,5.6c-5.2,0-6.8-1-7.5-3.5c-1.4-5.3-4.2-8.3-10.5-8.3c-11.7,0-13.3,12.9-13.3,22.7C70.1,262.4,71.4,277,83.4,277
		z"/>
	<path class="st4" d="M130.6,264.5c0,7.1,3.9,12.3,11.2,12.3s11.3-5.1,11.3-12.3v-39.1c0-3.4,3.1-4.3,6.2-4.3s6.2,0.9,6.2,4.3v38
		c0,17.4-9.8,24.6-23.7,24.6c-13.8,0-23.6-7.2-23.6-24.6v-38c0-3.4,3.1-4.3,6.2-4.3s6.2,0.9,6.2,4.3L130.6,264.5L130.6,264.5z"/>
	<path class="st4" d="M190.1,283.4c0,3.5-3.2,4.4-6.3,4.4s-6.2-0.9-6.2-4.4v-58c0-3.4,3.1-4.3,6.2-4.3s6.3,0.9,6.3,4.3V283.4z"/>
	<path class="st4" d="M211.5,287c-4.8,0-9.2-1.2-9.2-8.3v-48.9c0-7,4.4-8.2,9.2-8.2h12.9c18.4,0,25.9,15.3,25.9,32.8
		S243,287,224.4,287H211.5z M214.6,234.3v39.8c0,1.2,0.6,1.6,1.6,1.6h8.1c10.5,0,13.2-12.3,13.2-21.4c0-9.2-3-21.5-13.2-21.5h-8.1
		C215.2,232.7,214.6,233.1,214.6,234.3z"/>
	<path class="st4" d="M272.1,234.3v13.2h19c3.1,0,3.9,2.8,3.9,5.6c0,2.8-0.8,5.6-3.9,5.6h-19v15.4c0,1.2,0.5,1.6,1.6,1.6h20.9
		c3.2,0,3.9,2.8,3.9,5.6c0,2.8-0.8,5.6-3.9,5.6h-25.7c-4.7,0-9.2-1.2-9.2-8.2v-49c0-7,4.5-8.2,9.2-8.2h25.7c3.1,0,3.9,2.8,3.9,5.6
		s-0.7,5.6-3.9,5.6h-20.9C272.6,232.7,272.1,233.1,272.1,234.3z"/>
</g>
<path class="st5" d="M162.3,104.5c0,33.1-26.8,60-60,60s-60-26.8-60-60c0-33.1,26.8-60,60-60S162.3,71.3,162.3,104.5z"/>
<path class="st5" d="M314,104.5c0,33.1-26.8,60-60,60c-33.1,0-60-26.8-60-60c0-33.1,26.8-60,60-60C287.1,44.5,314,71.3,314,104.5z"
	/>
<path class="st6" d="M102.4,44.5c-3.4,0-6.8,0.3-10,0.9c28.3,4.8,49.9,29.4,49.9,59.1c0,29.7-21.6,54.3-49.9,59.1
	c3.3,0.5,6.6,0.8,10,0.8c33.1,0,60-26.8,60-60C162.3,71.3,135.5,44.5,102.4,44.5z"/>
<path class="st6" d="M254,44.5c-3.4,0-6.8,0.3-10,0.9c28.3,4.8,49.9,29.4,49.9,59.1c0,29.7-21.6,54.3-49.9,59.1
	c3.3,0.5,6.6,0.8,10,0.8c33.1,0,60-26.8,60-60C314,71.3,287.1,44.5,254,44.5z"/>
<path class="st7" d="M100.3,133.1c-1.9,0-3.8-0.7-5.3-2.2l-25.8-25.8c-2.9-2.9-2.9-7.7,0-10.6c2.9-2.9,7.7-2.9,10.6,0l20.5,20.5
	l60.8-60.8c2.9-2.9,7.7-2.9,10.6,0c2.9,2.9,2.9,7.7,0,10.6l-66.1,66.1C104.1,132.4,102.2,133.1,100.3,133.1z"/>
<path class="st8" d="M264.7,105.8l21.4-21.4c2.9-2.9,2.9-7.7,0-10.6c-2.9-2.9-7.7-2.9-10.6,0l-21.4,21.4l-21.4-21.4
	c-2.9-2.9-7.7-2.9-10.6,0c-2.9,2.9-2.9,7.7,0,10.6l21.4,21.4L222,127.2c-2.9,2.9-2.9,7.7,0,10.6c1.5,1.5,3.4,2.2,5.3,2.2
	s3.8-0.7,5.3-2.2l21.4-21.4l21.4,21.4c1.5,1.5,3.4,2.2,5.3,2.2s3.8-0.7,5.3-2.2c2.9-2.9,2.9-7.7,0-10.6L264.7,105.8z"/>
<path d="M79.8,94.5c-2.9-2.9-7.7-2.9-10.6,0c-2.9,2.9-2.9,7.7,0,10.6L95,130.9c1.5,1.5,3.4,2.2,5.3,2.2c1.9,0,3.8-0.7,5.3-2.2
	l66.1-66.1c2.9-2.9,2.9-7.7,0-10.6c-2.9-2.9-7.7-2.9-10.6,0l-7,7c-8.6-10.3-20.1-17.9-33.2-21.6c-17.3-5-35.5-2.9-51.3,5.9
	c-15.8,8.7-27.2,23.1-32.1,40.4c-10.2,35.8,10.6,73.2,46.3,83.4c6.2,1.8,12.4,2.6,18.5,2.6c29.3,0,56.4-19.3,64.9-48.9
	c1.3-4.6,2.1-9.3,2.5-14.1c0.1-1.1,0.1-2.7,0.1-4.5c0-4.1-3.4-7.5-7.5-7.5c-4.1,0-7.5,3.4-7.5,7.5c0,1.4,0,2.7-0.1,3.5
	c-0.2,3.7-0.9,7.4-1.9,10.9c-7.9,27.8-37,44-64.9,36c-27.8-8-44-37.1-36-64.9c3.8-13.5,12.7-24.6,25-31.4
	c12.2-6.8,26.4-8.4,39.9-4.6c10.6,3,19.9,9.3,26.7,17.8L100.3,115L79.8,94.5z"/>
<path d="M264.7,105.8l21.4-21.4c2.9-2.9,2.9-7.7,0-10.6c-2.9-2.9-7.7-2.9-10.6,0l-21.4,21.4l-21.4-21.4c-2.9-2.9-7.7-2.9-10.6,0
	c-2.9,2.9-2.9,7.7,0,10.6l21.4,21.4L222,127.2c-2.9,2.9-2.9,7.7,0,10.6c1.5,1.5,3.4,2.2,5.3,2.2s3.8-0.7,5.3-2.2l21.4-21.4
	l21.4,21.4c1.5,1.5,3.4,2.2,5.3,2.2s3.8-0.7,5.3-2.2c2.9-2.9,2.9-7.7,0-10.6L264.7,105.8z"/>
<path class="st3" d="M308.2,369.9v66.5c0,5.5-4.5,10-10,10H16.7c7.5,9,18.8,14.8,31.4,14.8h289.3c6.1,0,11-4.9,11-11v-80.3H308.2z"
	/>
<path class="st9" d="M106.2,502.5l-25-18.3l-25,18.3v-75.2h50V502.5z"/>
<path class="st8" d="M81.2,427.3v56.9l25,18.3v-75.2H81.2z"/>
<path class="st3" d="M307.2,434.8H36.3c-4.1,0-7.5-3.4-7.5-7.5c0-4.1,3.4-7.5,7.5-7.5h270.9c4.1,0,7.5,3.4,7.5,7.5
	C314.6,431.5,311.3,434.8,307.2,434.8z"/>
<path d="M83.4,277c10.8,0,12.2-8.2,12.4-12.7c0.1-2.3-0.5-3.1-2.6-3.1h-7.2c-3,0-3.7-2.7-3.7-5.3s0.8-5.2,3.7-5.2h13.3
	c6.8,0,8.5,3,8.7,8c0.7,16.1-5.8,29.3-24.1,29.3c-19.2,0-26.6-15.1-26.6-33.8c0-19.1,7-32.7,26.1-33.7c13.1,0,21.2,6.1,23.4,17.1
	c0.6,3-0.7,5.6-5.4,5.6c-5.2,0-6.8-1-7.5-3.5c-1.4-5.3-4.2-8.3-10.5-8.3c-11.7,0-13.3,12.9-13.3,22.7C70.1,262.4,71.4,277,83.4,277z
	"/>
<path d="M130.6,264.5c0,7.1,3.9,12.3,11.2,12.3s11.3-5.1,11.3-12.3v-39.1c0-3.4,3.1-4.3,6.2-4.3s6.2,0.9,6.2,4.3v38
	c0,17.4-9.8,24.6-23.7,24.6c-13.8,0-23.6-7.2-23.6-24.6v-38c0-3.4,3.1-4.3,6.2-4.3s6.2,0.9,6.2,4.3L130.6,264.5L130.6,264.5z"/>
<path d="M190.1,283.4c0,3.5-3.2,4.4-6.3,4.4s-6.2-0.9-6.2-4.4v-58c0-3.4,3.1-4.3,6.2-4.3s6.3,0.9,6.3,4.3V283.4z"/>
<path d="M211.5,287c-4.8,0-9.2-1.2-9.2-8.3v-48.9c0-7,4.4-8.2,9.2-8.2h12.9c18.4,0,25.9,15.3,25.9,32.8S243,287,224.4,287H211.5z
	 M214.6,234.3v39.8c0,1.2,0.6,1.6,1.6,1.6h8.1c10.5,0,13.2-12.3,13.2-21.4c0-9.2-3-21.5-13.2-21.5h-8.1
	C215.2,232.7,214.6,233.1,214.6,234.3z"/>
<path d="M272.1,234.3v13.2h19c3.1,0,3.9,2.8,3.9,5.6c0,2.8-0.8,5.6-3.9,5.6h-19v15.4c0,1.2,0.5,1.6,1.6,1.6h20.9
	c3.2,0,3.9,2.8,3.9,5.6c0,2.8-0.8,5.6-3.9,5.6h-25.7c-4.7,0-9.2-1.2-9.2-8.2v-49c0-7,4.5-8.2,9.2-8.2h25.7c3.1,0,3.9,2.8,3.9,5.6
	s-0.7,5.6-3.9,5.6h-20.9C272.6,232.7,272.1,233.1,272.1,234.3z"/>
<path d="M355.9,369.9V17.6c0-10.3-8.4-18.6-18.6-18.6H48.7C21.8-1-0.1,20.9-0.1,47.8v372c0,26.9,21.9,48.8,48.8,48.8h0.1v33.9
	c0,2.8,1.6,5.4,4.1,6.7c2.5,1.3,5.5,1,7.8-0.6l20.5-15l20.6,15c1.3,1,2.9,1.4,4.4,1.4c1.2,0,2.3-0.3,3.4-0.8
	c2.5-1.3,4.1-3.9,4.1-6.7v-33.9h223.5c10.3,0,18.6-8.4,18.6-18.6v-43.8c0-4.1-3.4-7.5-7.5-7.5c-4.1,0-7.5,3.4-7.5,7.5V450
	c0,2-1.6,3.6-3.6,3.6H113.7v-18.8h193.4c4.1,0,7.5-3.4,7.5-7.5c0-4.1-3.4-7.5-7.5-7.5H36.3c-4.1,0-7.5,3.4-7.5,7.5
	c0,4.1,3.4,7.5,7.5,7.5h12.5v18.8h-0.1c-18.6,0-33.8-15.2-33.8-33.8v-8.7c0-18.6,15.2-33.8,33.8-33.8h299.7
	C352.5,377.3,355.9,374,355.9,369.9z M98.7,434.8v52.9l-13.1-9.5c-1.3-1-2.9-1.4-4.4-1.4c-1.6,0-3.1,0.5-4.4,1.4l-13.1,9.5v-52.9
	H98.7z M14.9,376V47.8C14.9,29.2,30,14,48.7,14h288.6c2,0,3.6,1.6,3.6,3.6v344.7H48.7C35.5,362.4,23.6,367.6,14.9,376z"/>
<path d="M57.2,390.6c-4.1,0-7.5,3.4-7.5,7.5s3.4,7.5,7.5,7.5h156c4.1,0,7.5-3.4,7.5-7.5s-3.4-7.5-7.5-7.5H57.2z"/>
<path d="M248.4,390.6c-4.1,0-7.5,3.4-7.5,7.5s3.4,7.5,7.5,7.5h58.7c4.1,0,7.5-3.4,7.5-7.5s-3.4-7.5-7.5-7.5H248.4z"/>
<path d="M254,171.9c-37.2,0-67.5-30.3-67.5-67.5c0-37.2,30.3-67.5,67.5-67.5c37.2,0,67.5,30.3,67.5,67.5
	C321.5,141.6,291.2,171.9,254,171.9z M254,52c-28.9,0-52.5,23.5-52.5,52.5c0,28.9,23.5,52.5,52.5,52.5c28.9,0,52.5-23.5,52.5-52.5
	C306.5,75.5,282.9,52,254,52z"/>
</svg>
