<?xml version="1.0" encoding="utf-8"?>
<!-- Generator: Adobe Illustrator 24.0.1, SVG Export Plug-In . SVG Version: 6.00 Build 0)  -->
<svg version="1.1" xmlns="http://www.w3.org/2000/svg" xmlns:xlink="http://www.w3.org/1999/xlink" x="0px" y="0px"
	 viewBox="0 0 256 256" style="enable-background:new 0 0 256 256;" xml:space="preserve">
<style type="text/css">
	.st0{display:none;}
	.st1{fill:#FFFFFF;}
</style>
<g id="Layer_1" class="st0">
	
		<image style="display:inline;overflow:visible;" width="800" height="600" xlink:href="32186A0E.jpg"  transform="matrix(1 0 0 1 -270.0518 -169.6923)">
	</image>
</g>
<g id="Layer_2">
	<path class="st1" d="M49.7,221.3l-1.1,21.4h2.7l8.2,13.6L37.1,256l-4.9-9.3l3.3-40.7c0,0,32.4-25.8,40.7-77.5
		c8.8-14.8,36.3-20.9,36.3-20.9s43.4-4.9,50.5-56c7.7-23.1,22.5-25.3,22.5-25.3s4.4-8.2,13.7-13.2s7.1-12.6,7.1-12.6
		s5.5,10.4-6.6,23.1c1.1,12.1,7.7,12.1,7.7,12.1S197,27.9,211.3,23c6.6-4.4,5.5-8.8,5.5-8.8s3.3,9.3-4.4,15.9
		c0,0,18.7,7.1,13.7,13.7l22.5,11c0,0,1.6,6.6-9.3,12.6c0,0-16.5-6.6-31.3-4.9c-15.9-5.5-20.9-5.5-24.2-1.6c0,0,8.8-2.7,12.6,0.5
		c0,0-1.6,51.1,4.4,59.9c6,8.8-3.3,74.7-3.3,74.7v40.7l11,19.2h-19.2l-6.6-17l-2.7-66.5l-9.3,5.5l2.2-18.1c0,0-15.4,35.2-11.5,69.2
		l11.5,27.5h-20.9l-7.1-23.1v-70.3l-6-17.6l0.5-22.5l-3.8,20.9l6.6,20.9v7.1l-19.2-8.2c0,0-19.2-7.1-32.4,13.7
		S49.7,221.3,49.7,221.3z"/>
	<path class="st1" d="M97.5,175.2c0,0,12.6-14.3,30.8-4.4l-1.6,21.4l-14.3,20.9l-3.3,11.5l4.4,17.6h3.8l7.7,14.3l-22.5,0.5
		l-15.9-47.3C86.5,209.8,104.7,191.1,97.5,175.2z"/>
	<path class="st1" d="M73.1,130.7c3-3-16.7,14-29.7,15.4c-15.9,1.6-36.3,35.2-36.3,35.2s23.4-27.6,36-29.2
		c12.6-1.6,26.6-12.5,26.6-12.5"/>
</g>
</svg>
