<?xml version="1.0" encoding="utf-8"?>
<!-- Generator: Adobe Illustrator 24.0.1, SVG Export Plug-In . SVG Version: 6.00 Build 0)  -->
<svg version="1.1" xmlns="http://www.w3.org/2000/svg" xmlns:xlink="http://www.w3.org/1999/xlink" x="0px" y="0px"
	 viewBox="0 0 500 500" style="enable-background:new 0 0 500 500;" xml:space="preserve">
<style type="text/css">
	.st0{display:none;}
	.st1{display:inline;}
	.st2{fill:#282829;}
	.st3{fill:#FFA168;}
	.st4{fill:#F1F2F2;}
	.st5{display:inline;fill:#EE202E;}
</style>
<g id="Layer_2" class="st0">
	<g class="st1">
		
			<image style="overflow:visible;" width="198" height="255" xlink:href="8DFAD2E4.jpg"  transform="matrix(2.0979 0 0 2.2867 42.3407 1.7582)">
		</image>
	</g>
</g>
<g id="Layer_1">
	<path class="st2" d="M374,155.9c0,0-28-27.5-23.6-59.3c4.4-31.9-12.1-73.1-12.1-73.1c1.1,16.5-18.1,65.9-35.2,84.6
		c-8.2,23.6-12.1,59.3-10.4,90.1c-8.3-5.7-46.9-6.6-46.9-6.6s-38.5,0.5-47.3,6.6c1.6-30.8-2.2-66.5-10.4-90.1
		c-17-18.7-36.3-68.1-35.2-84.6c0,0-16.5,41.2-12.1,73.1c4.4,31.9-23.6,59.3-23.6,59.3s-25.8,35.7-4.4,88.5
		c-3.8,33.5,9.9,66.5,9.9,66.5l18.7,49.5l8.2,46.6l190.5,0.5l9.8-47.1l18.7-49.5c0,0,13.7-33,9.9-66.5
		C399.8,191.6,374,155.9,374,155.9z"/>
</g>
<g id="Layer_5">
	<path d="M149.2,353.1c-0.3-43.2,7.8-63.3-9.5-76.9c0,0,11.2,4.1,16.7,2c0,0,0.3-16,15-20.4l-2.7-28.9c0,0,9.9-15,7.1-26.9
		c0,0,14-14.3,23.1-17.3c0,0,0,0,0,0c0-6.8-0.2-13.7-0.7-20.6c0,0,0-0.1,0-0.1c-0.3-5.1-0.8-10.1-1.4-15c0-0.1,0-0.3,0-0.4
		c-0.2-1.6-0.4-3.1-0.6-4.7c0-0.1,0-0.2-0.1-0.4c-0.4-3.1-0.9-6.2-1.5-9.2c0-0.2-0.1-0.3-0.1-0.5c-0.3-1.4-0.5-2.8-0.8-4.2
		c0-0.2-0.1-0.4-0.1-0.6c-0.3-1.4-0.6-2.8-0.9-4.1c0-0.1-0.1-0.2-0.1-0.4c-0.3-1.3-0.6-2.6-0.9-3.9c0-0.1-0.1-0.3-0.1-0.4
		c-0.3-1.3-0.7-2.5-1-3.8c-0.1-0.2-0.1-0.5-0.2-0.7c-0.3-1.2-0.7-2.4-1.1-3.6c-0.1-0.2-0.1-0.4-0.2-0.6c-0.4-1.2-0.8-2.4-1.2-3.5
		c-17-18.7-36.3-68.1-35.2-84.6c0,0-16.5,41.2-12.1,73.1c4.4,31.9-23.6,59.3-23.6,59.3s-25.8,35.7-4.4,88.5
		c-3.8,33.5,9.9,66.5,9.9,66.5l18.7,49.5l8.2,46.6l13.8-0.5C160.2,403.5,149.5,390.7,149.2,353.1z"/>
	<path d="M342.4,353.6c0.3-43.2-7.8-63.3,9.5-76.9c0,0-11.2,4.1-16.7,2c0,0-0.3-16-15-20.4l2.7-28.9c0,0-9.9-15-7.1-26.9
		c0,0-14-14.3-23.1-17.3c0,0,0,0,0,0c0-6.8,0.2-13.7,0.7-20.6c0,0,0-0.1,0-0.1c0.3-5.1,0.8-10.1,1.4-15c0-0.1,0-0.3,0-0.4
		c0.2-1.6,0.4-3.1,0.6-4.7c0-0.1,0-0.2,0.1-0.4c0.4-3.1,0.9-6.2,1.5-9.2c0-0.2,0.1-0.3,0.1-0.5c0.3-1.4,0.5-2.8,0.8-4.2
		c0-0.2,0.1-0.4,0.1-0.6c0.3-1.4,0.6-2.8,0.9-4.1c0-0.1,0.1-0.2,0.1-0.4c0.3-1.3,0.6-2.6,0.9-3.9c0-0.1,0.1-0.3,0.1-0.4
		c0.3-1.3,0.7-2.5,1-3.8c0.1-0.2,0.1-0.5,0.2-0.7c0.3-1.2,0.7-2.4,1.1-3.6c0.1-0.2,0.1-0.4,0.2-0.6c0.4-1.2,0.8-2.4,1.2-3.5
		c17-18.7,36.3-68.1,35.2-84.6c0,0,16.5,41.2,12.1,73.1c-4.4,31.9,23.6,59.3,23.6,59.3s25.8,35.7,4.4,88.5
		c3.8,33.5-9.9,66.5-9.9,66.5l-18.7,49.5L340,407.4l-17-0.5C330.2,404.6,342.1,391.2,342.4,353.6z"/>
</g>
<g id="Layer_3">
	<path class="st3" d="M212.3,402.9c-9.2-11.5,10-64.3,3.1-46.7c-6.9,17.6-22.2,18.4-22.2,18.4l-2.3-13.8
		c-18.4-4.6-31.4-26.8-31.4-26.8c-8.4,13,0.8,48.3,0.8,48.3l12.4,24.9l37.1,0L212.3,402.9z"/>
	<path class="st3" d="M278.7,402c9.2-11.5-10-64.3-3.1-46.7c6.9,17.6,22.2,18.4,22.2,18.4l2.3-13.8c18.4-4.6,31.4-26.8,31.4-26.8
		c8.4,13-0.8,49.3-0.8,49.3l-12.7,24.9l-36.8-0.1L278.7,402z"/>
	<path d="M275.2,282.3c0,0-1.5,16.9-7.1,18.4c0,0,6.1,13.8,3.1,20.9c0,0,4.1,4.6,3.6,12.8c-0.5,8.2,9.2,18.4,9.2,18.4
		s-3.6-25.5,4.6-29.6c0,0,5.6,12.8,22,9.7c12.8-6.1,12.8-16.3,12.8-16.3s5.1,1.5,5.1,6.6c0,0,6.6-12.8-22-17.9c0,0-2.6-8.7,5.6-5.1
		c0,0,2.6-4.1-6.1-5.6l-2-13.3c0,0-7.1,15.8-4.1,17.9c0,0-8.7,9.7-12.3,9.7S278.7,300.2,275.2,282.3z"/>
	<path d="M214.8,282.3c0,0,1.5,16.9,7.1,18.4c0,0-6.1,13.8-3.1,20.9c0,0-4.1,4.6-3.6,12.8c0.5,8.2-9.2,18.4-9.2,18.4
		s3.6-25.5-4.6-29.6c0,0-5.6,12.8-22,9.7c-12.8-6.1-12.8-16.3-12.8-16.3s-5.1,1.5-5.1,6.6c0,0-6.6-12.8,22-17.9c0,0,2.6-8.7-5.6-5.1
		c0,0-2.6-4.1,6.1-5.6l2-13.3c0,0,7.1,15.8,4.1,17.9c0,0,8.7,9.7,12.3,9.7C206.1,308.9,211.2,300.2,214.8,282.3z"/>
	<g>
		<path class="st4" d="M289.8,321.5c0,0,6.7-9.5,13.3-10c6.6-0.5,12.8,2.3,15.7,6.5c-0.9,5.4-4.8,13.5-13.7,13.6
			C296.2,331.7,289.8,321.5,289.8,321.5z"/>
		<path class="st4" d="M198.7,321.5c0,0-6.7-9.5-13.3-10s-12.8,2.3-15.7,6.5c0.9,5.4,4.8,13.5,13.7,13.6S198.7,321.5,198.7,321.5z"
			/>
	</g>
	<path class="st3" d="M130.2,165.4l25.8,47.7l-14.8-42.9l16.1,40.6c-6.4-17.6,7.7-45.4,7.7-45.4s17.4-24.3,2.3-58.2
		c-21.2-48.2-18.6-69.9-17.6-74.6c-4.6,14-11.9,41.2-8.8,63.7c4.4,31.9-23.6,59.3-23.6,59.3s-24.8,34.3-5.6,85.3
		c0.1,0,0.2-0.1,0.2-0.2c2.3-4.6,19.1-0.3,19.1-0.3c11-1.3,13-14.6,13-14.6l-14.3-51.1l23,45.4L130.2,165.4z"/>
	<path class="st3" d="M374.4,156.1c0,0-28-27.5-23.6-59.3c3-21.8-3.8-48-8.3-62.4c1,6.7,1.8,28.6-17.9,73.2
		c-15.1,34,2.3,58.2,2.3,58.2s14,27.8,7.7,45.4l16.1-40.6l-14.8,42.9l25.8-47.7l-22.5,54.9l23-45.4l-14.3,51.1c0,0,2,13.3,13,14.6
		c0,0,16.9-4.3,19.1,0.3c0,0.1,0.1,0.1,0.1,0.1C399.2,190.4,374.4,156.1,374.4,156.1z"/>
	<g class="st0">
		<path class="st5" d="M287.8,318.5c0,0,6.7-9.5,13.3-10c6.6-0.5,12.8,2.3,15.7,6.5c-0.9,5.4-4.8,13.5-13.7,13.6
			C294.2,328.7,287.8,318.5,287.8,318.5z"/>
		<path class="st5" d="M185.4,328.6c9,0.1,15.3-10,15.3-10s-6.7-9.5-13.3-10c-6.6-0.5-12.8,2.3-15.7,6.5
			C172.5,320.4,176.4,328.5,185.4,328.6z"/>
	</g>
</g>
</svg>
